<svg xmlns="http://www.w3.org/2000/svg" width="28.31" height="23"><g data-name="圖層 2"><path d="M28.31 2.72a12.23 12.23 0 01-3.31.92A5.76 5.76 0 0027.52.43a11.71 11.71 0 01-3.68 1.41 5.8 5.8 0 00-10 4 6.38 6.38 0 00.13 1.33A16.46 16.46 0 012 1.06a5.81 5.81 0 001.75 7.75 5.61 5.61 0 01-2.62-.71v.06a5.84 5.84 0 004.65 5.71 6.2 6.2 0 01-1.52.19 5 5 0 01-1.1-.1 5.85 5.85 0 005.42 4 11.68 11.68 0 01-7.19 2.48A12.66 12.66 0 010 20.4 16.4 16.4 0 008.9 23c10.68 0 16.52-8.85 16.52-16.51v-.75a11.61 11.61 0 002.89-3.02z" fill="#fff" data-name="圖層 1"/></g></svg>