<svg xmlns="http://www.w3.org/2000/svg" width="89.09" height="89.09"><g data-name="圖層 2"><g data-name="圖層 1" fill="#fff"><path d="M44.54 0a44.55 44.55 0 1044.55 44.54A44.54 44.54 0 0044.54 0zm0 86.79a42.25 42.25 0 1142.25-42.25 42.25 42.25 0 01-42.25 42.25z" fill-rule="evenodd"/><path d="M42.76 8a.53.53 0 00-.53.53v6.36a.53.53 0 01-.53.53h-3a.54.54 0 01-.54-.53V8.53A.53.53 0 0037.6 8h-1.28a.54.54 0 00-.54.53v6.36a.53.53 0 01-.53.53h-3a.53.53 0 01-.53-.53V8.53a.54.54 0 00-.57-.53h-1.28a.54.54 0 00-.54.53v8.71a.54.54 0 00.54.53h14.18a.53.53 0 00.53-.53V8.53a.53.53 0 00-.53-.53zM21.23 27.47a.54.54 0 00.54-.53v-1.29a.54.54 0 00-.54-.53H9.09a.53.53 0 00-.53.53v1.29a.53.53 0 00.53.53h1.76a.53.53 0 01.53.53v13.72a.54.54 0 01-.53.54H9.09a.53.53 0 00-.53.53v1.29a.53.53 0 00.53.53h12.14a.54.54 0 00.54-.53v-1.29a.54.54 0 00-.54-.53h-1.76a.54.54 0 01-.53-.54V28a.53.53 0 01.53-.53zm-4.64 14.25a.54.54 0 01-.54.54h-1.78a.54.54 0 01-.53-.54V28a.53.53 0 01.53-.53h1.78a.54.54 0 01.54.53zm27.46-11.44h-5.38a.54.54 0 01-.54-.53V28a.54.54 0 01.54-.53H44a.53.53 0 00.53-.53v-1.29a.53.53 0 00-.53-.53H29.89a.54.54 0 00-.54.53v1.29a.54.54 0 00.54.53h5.36a.53.53 0 01.53.53v1.75a.53.53 0 01-.53.53h-5.38a.54.54 0 00-.54.53V44a.54.54 0 00.54.53h1.28a.54.54 0 00.54-.53V33.16a.53.53 0 01.53-.53h.88a.53.53 0 01.53.53V44a.54.54 0 00.54.53h1.28A.53.53 0 0036 44V33.16a.54.54 0 01.54-.53h.88a.53.53 0 01.53.53V44a.54.54 0 00.54.53h1.28a.53.53 0 00.53-.53V33.16a.54.54 0 01.54-.53h.88a.53.53 0 01.53.53V44a.53.53 0 00.53.53h1.29a.53.53 0 00.53-.53V30.81a.53.53 0 00-.55-.53z"/><circle cx="15.05" cy="12.89" r="5.3"/></g></g></svg>